<svg aria-hidden="true" style="position: absolute; width: 0; height: 0; overflow: hidden;" version="1.1" xmlns="http://www.w3.org/2000/svg" xmlns:xlink="http://www.w3.org/1999/xlink">
<defs>
<symbol id="icon-triangle" viewBox="0 0 28 32">
<path d="M0.362 32l27.713-16-27.713-16v32z"></path>
</symbol>
<symbol id="icon-quotes" viewBox="0 0 36 32">
<path d="M3.353 31.412h8.941c1.886 0 3.353-1.537 3.353-3.353v-8.941c0-1.886-1.467-3.353-3.353-3.353h-5.588v-4.471c0-2.515 2.026-4.471 4.471-4.471h0.559c0.978 0 1.676-0.768 1.676-1.676v-3.353c0-0.978-0.699-1.676-1.676-1.676h-0.559c-6.147 0-11.176 4.96-11.176 11.176v16.765c0 1.816 1.537 3.353 3.353 3.353zM23.471 31.412h8.941c1.886 0 3.353-1.537 3.353-3.353v-8.941c0-1.886-1.467-3.353-3.353-3.353h-5.588v-4.471c0-2.515 2.026-4.471 4.471-4.471h0.559c0.978 0 1.676-0.768 1.676-1.676v-3.353c0-0.978-0.699-1.676-1.676-1.676h-0.559c-6.147 0-11.176 4.96-11.176 11.176v16.765c0 1.816 1.537 3.353 3.353 3.353z"></path>
</symbol>
<symbol id="icon-views" viewBox="0 0 43 32">
<path d="M42.577 15.516c-1.673-4.327-4.577-8.069-8.353-10.764s-8.259-4.223-12.895-4.398c-4.636 0.174-9.119 1.703-12.895 4.398s-6.68 6.437-8.353 10.764c-0.113 0.312-0.113 0.655 0 0.967 1.673 4.327 4.577 8.069 8.353 10.764s8.26 4.224 12.895 4.398c4.636-0.174 9.119-1.703 12.895-4.398s6.681-6.436 8.353-10.764c0.113-0.312 0.113-0.655 0-0.967zM21.328 28.8c-7.538 0-15.503-5.59-18.39-12.8 2.887-7.211 10.852-12.8 18.39-12.8s15.503 5.589 18.39 12.8c-2.887 7.211-10.852 12.8-18.39 12.8z"></path>
<path d="M21.328 7.466c-1.688 0-3.338 0.5-4.741 1.438s-2.497 2.27-3.143 3.83c-0.646 1.559-0.815 3.275-0.486 4.93s1.142 3.176 2.335 4.369c1.193 1.193 2.714 2.006 4.369 2.335s3.371 0.16 4.93-0.486c1.559-0.646 2.892-1.74 3.83-3.143s1.438-3.053 1.438-4.741c0-2.263-0.899-4.434-2.499-6.034s-3.771-2.499-6.034-2.499zM21.328 21.689c-1.125 0-2.225-0.334-3.161-0.959s-1.665-1.514-2.095-2.553c-0.431-1.040-0.543-2.183-0.324-3.287s0.761-2.117 1.557-2.913c0.796-0.796 1.809-1.337 2.913-1.557s2.247-0.107 3.287 0.324c1.040 0.431 1.928 1.16 2.553 2.095s0.959 2.035 0.959 3.161c0 1.509-0.599 2.956-1.666 4.023s-2.514 1.666-4.023 1.666z"></path>
</symbol>
<symbol id="icon-admin" viewBox="0 0 28 32">
<path d="M19.563 19c-1.813 0-2.625 1-5.563 1-3 0-3.813-1-5.625-1-4.625 0-8.375 3.812-8.375 8.438v1.562c0 1.688 1.313 3 3 3h22c1.625 0 3-1.312 3-3v-1.562c0-4.625-3.812-8.438-8.438-8.438zM25 29h-22v-1.562c0-3 2.375-5.438 5.375-5.438 0.938 0 2.375 1 5.625 1 3.188 0 4.625-1 5.563-1 3 0 5.438 2.438 5.438 5.438v1.562zM14 18c4.938 0 9-4 9-9 0-4.938-4.063-9-9-9-5 0-9 4.063-9 9 0 5 4 9 9 9zM14 3c3.25 0 6 2.75 6 6 0 3.313-2.75 6-6 6-3.313 0-6-2.688-6-6 0-3.25 2.688-6 6-6z"></path>
</symbol>
<symbol id="icon-arrow" viewBox="0 0 34 32">
<path d="M14.703 2.108c-0.733 0.733-0.66 1.833 0 2.566l8.871 8.431h-21.113c-0.953 0-1.759 0.733-1.759 1.759v2.346c0 0.953 0.806 1.759 1.759 1.759h21.113l-8.871 8.357c-0.66 0.733-0.733 1.833 0 2.566l1.613 1.613c0.66 0.66 1.833 0.66 2.493 0l14.222-14.296c0.733-0.66 0.733-1.759 0-2.419l-14.222-14.296c-0.66-0.66-1.759-0.66-2.493 0l-1.613 1.613z"></path>
</symbol>
<symbol id="icon-behance" viewBox="0 0 50 32">
<path d="M20.252 14.385c2.706-1.397 4.19-3.405 4.19-6.46 0-6.198-4.627-7.682-9.864-7.682h-14.578v30.902h14.927c5.674 0 10.912-2.706 10.912-8.991 0-3.841-1.833-6.722-5.587-7.769zM6.721 5.481h6.46c2.444 0 4.627 0.698 4.627 3.579 0 2.619-1.746 3.666-4.19 3.666h-6.896v-7.245zM14.054 25.908h-7.333v-8.555h7.42c3.055 0 4.889 1.309 4.889 4.452s-2.27 4.103-4.976 4.103zM45.306 4.87v-3.055h-12.483v3.055h12.483zM50.281 20.321c0-6.634-3.928-12.221-10.912-12.221-6.896 0-11.523 5.15-11.523 11.872 0 6.984 4.452 11.785 11.523 11.785 5.325 0 8.817-2.444 10.475-7.507h-5.412c-0.611 1.921-3.055 2.881-4.888 2.881-3.579 0-5.5-2.095-5.5-5.674h16.149c0-0.349 0.087-0.786 0.087-1.135zM34.045 17.528c0.175-2.881 2.182-4.714 5.063-4.714 3.143 0 4.714 1.746 4.976 4.714h-10.039z"></path>
</symbol>
<symbol id="icon-comments" viewBox="0 0 32 32">
<path d="M4.814 4.814c0.097-1.309 0.686-2.532 1.648-3.425s2.226-1.389 3.538-1.389h14.4c0.998 0 1.986 0.197 2.908 0.579s1.76 0.942 2.466 1.647c0.706 0.706 1.266 1.544 1.647 2.466s0.579 1.91 0.579 2.908v9.6c0 1.312-0.496 2.576-1.389 3.538s-2.116 1.55-3.425 1.648c-0.097 1.309-0.686 2.532-1.648 3.425s-2.226 1.389-3.538 1.389h-8.133l-5.867 4.4c-1.318 0.989-3.2 0.048-3.2-1.6v-2.816c-1.306-0.101-2.526-0.691-3.416-1.652s-1.384-2.223-1.384-3.532v-12c0-1.312 0.496-2.576 1.389-3.538s2.116-1.55 3.425-1.648zM7.229 4.8h14.771c1.379 0 2.702 0.548 3.677 1.523s1.523 2.298 1.523 3.677v9.971c0.666-0.096 1.276-0.429 1.717-0.938s0.683-1.16 0.683-1.833v-9.6c0-1.379-0.548-2.702-1.523-3.677s-2.298-1.523-3.677-1.523h-14.4c-0.673 0-1.324 0.243-1.833 0.683s-0.842 1.050-0.938 1.717zM5.2 24.8h2v4.4l5.867-4.4h8.933c0.743 0 1.455-0.295 1.98-0.82s0.82-1.237 0.82-1.98v-12c0-0.743-0.295-1.455-0.82-1.98s-1.237-0.82-1.98-0.82h-16.8c-0.743 0-1.455 0.295-1.98 0.82s-0.82 1.237-0.82 1.98v12c0 1.546 1.254 2.8 2.8 2.8z"></path>
</symbol>
<symbol id="icon-instagram" viewBox="0 0 30 32">
<path d="M15.059 7.919c-4.235 0-7.61 3.441-7.61 7.61 0 4.235 3.375 7.61 7.61 7.61 4.169 0 7.61-3.375 7.61-7.61 0-4.169-3.441-7.61-7.61-7.61zM15.059 20.493c-2.713 0-4.963-2.184-4.963-4.963 0-2.713 2.184-4.897 4.963-4.897 2.713 0 4.897 2.184 4.897 4.897 0 2.779-2.184 4.963-4.897 4.963zM24.721 7.654c0-0.993-0.794-1.787-1.787-1.787s-1.787 0.794-1.787 1.787 0.794 1.787 1.787 1.787c0.993 0 1.787-0.794 1.787-1.787zM29.75 9.441c-0.132-2.382-0.662-4.5-2.382-6.221s-3.838-2.25-6.221-2.382c-2.449-0.132-9.794-0.132-12.243 0-2.382 0.132-4.434 0.662-6.221 2.382-1.721 1.721-2.25 3.838-2.382 6.221-0.132 2.449-0.132 9.794 0 12.243 0.132 2.383 0.662 4.434 2.382 6.221 1.787 1.721 3.838 2.25 6.221 2.382 2.449 0.133 9.794 0.133 12.243 0 2.382-0.132 4.5-0.662 6.221-2.382 1.72-1.787 2.25-3.838 2.382-6.221 0.132-2.448 0.132-9.794 0-12.243zM26.574 24.265c-0.463 1.324-1.522 2.316-2.779 2.846-1.985 0.794-6.618 0.596-8.735 0.596-2.184 0-6.816 0.198-8.735-0.596-1.324-0.529-2.316-1.522-2.846-2.846-0.794-1.919-0.596-6.551-0.596-8.735 0-2.118-0.199-6.75 0.596-8.735 0.529-1.257 1.522-2.25 2.846-2.779 1.919-0.794 6.551-0.596 8.735-0.596 2.118 0 6.75-0.199 8.735 0.596 1.257 0.463 2.25 1.522 2.779 2.779 0.794 1.985 0.596 6.618 0.596 8.735 0 2.184 0.199 6.816-0.596 8.735z"></path>
</symbol>
<symbol id="icon-linkedin" viewBox="0 0 32 32">
<path d="M7.143 31.964h-6.643v-21.357h6.643v21.357zM3.786 7.75c-2.071 0-3.786-1.786-3.786-3.929 0-2.071 1.714-3.786 3.786-3.786 2.143 0 3.857 1.714 3.857 3.786 0 2.143-1.714 3.929-3.857 3.929zM31.928 31.964h-6.571v-10.357c0-2.5-0.072-5.643-3.5-5.643s-3.929 2.643-3.929 5.429v10.571h-6.643v-21.357h6.357v2.929h0.071c0.929-1.643 3.072-3.429 6.286-3.429 6.714 0 8 4.429 8 10.143v11.714h-0.072z"></path>
</symbol>
<symbol id="icon-logo" viewBox="0 0 33 32">
<path d="M32.571 0.338c0.002 3.683 0.005 7.365 0.007 11.048 0 0.443 0 0.886 0 1.331 0 0.217 0 0.433-0.002 0.651 0 0.062 0 0.124 0 0.186-0.012 4.494-0.025 8.987-0.032 13.481-0.002 1.192 0.015 2.385 0.025 3.577-0.015 0.167-0.031 0.333-0.046 0.5-1.462-1.614-2.939-3.214-4.383-4.845-5.957-6.731-11.905-13.468-17.842-20.216-0.354-0.403-0.718-0.53-1.234-0.525-2.51 0.022-5.019 0.012-7.529 0.012-0.305 0-0.608 0-0.958 0 0-1.841 0-3.612 0-5.499 0.284 0 0.553 0 0.824 0 3.412 0 6.823 0.012 10.235-0.015 0.533-0.003 0.878 0.159 1.222 0.552 0.822 0.937 1.697 1.826 2.55 2.734l-0.002-0.013c0.772 0.916 1.545 1.833 2.317 2.749 0.212 0.241 0.421 0.482 0.633 0.724l0.026 0.032c0.721 0.814 1.44 1.631 2.161 2.445 0.186 0.209 0.371 0.416 0.557 0.626 0.535 0.607 1.070 1.214 1.604 1.821l0.008 0.010c0.051 0.057 0.103 0.114 0.154 0.171 0.206 0.232 0.413 0.463 0.618 0.696 0.256 0.291 0.513 0.582 0.768 0.873 0.272 0.309 0.547 0.617 0.819 0.927l0.010 0.012c0.051 0.057 0.102 0.114 0.152 0.169l0.002 0.002c0.107 0.126 0.215 0.251 0.322 0.376 0.042 0.048 0.086 0.099 0.129 0.147 0.389 0.458 0.778 0.916 1.254 1.477 0-0.856 0-1.512 0-2.167 0.002-2.9 0.002-5.8 0.003-8.7-0.119-0.040-0.235-0.082-0.354-0.122-1.354 0.002-2.709 0.003-4.063 0.005-0.058-0.003-0.113-0.008-0.171-0.012-0.271-0.264-0.541-0.527-0.811-0.791-0.23-0.259-0.462-0.52-0.692-0.779-0.619-0.661-1.239-1.323-1.858-1.984-0.349-0.437-0.697-0.873-1.046-1.31l-0.012-0.015c-0.118-0.191-0.237-0.383-0.42-0.677 0.8 0 1.467 0 2.134 0 4.009 0.013 8.018 0.023 12.029 0.045 0.294 0.002 0.589 0.082 0.883 0.125 0.002 0.055 0.005 0.112 0.007 0.167z"></path>
<path d="M27.983 31.96c-4.243 0.013-8.483 0.027-12.726 0.040-0.624-0.002-1.249-0.002-1.873-0.003-3.946-0.010-7.893-0.020-11.841-0.030-0.305 0-0.609 0-0.965 0 0-7.636 0-15.202 0-22.868 1.552 0 3.109 0.14 4.63-0.035 1.97-0.227 3.239 0.493 4.485 1.988 3.207 3.847 6.605 7.537 9.925 11.292 0.125 0.14 0.235 0.296 0.454 0.574-1.753 0-3.381-0.122-4.982 0.034-1.714 0.166-2.867-0.378-3.918-1.738-1.516-1.96-3.263-3.748-5.013-5.723 0 3.721 0 7.288 0 10.934 4.326 0 8.654 0 12.983 0 1.298 0.002 2.596 0.002 3.892 0.003 0.25 0.211 0.528 0.398 0.745 0.637 1.408 1.564 2.802 3.139 4.202 4.711 0.002 0.060 0.002 0.122 0.002 0.184z"></path>
</symbol>
</defs>
</svg>
