<svg aria-hidden="true" style="position: absolute; width: 0; height: 0; overflow: hidden;" version="1.1" xmlns="http://www.w3.org/2000/svg" xmlns:xlink="http://www.w3.org/1999/xlink">
<defs>
<symbol id="icon-menu" viewBox="0 0 32 32">
<path d="M1.934 14.345h28.132c0.914 0 1.655 0.741 1.655 1.655s-0.741 1.655-1.655 1.655h-28.132c-0.914 0-1.655-0.741-1.655-1.655s0.741-1.655 1.655-1.655z"></path>
<path d="M1.934 26.756h28.132c0.914 0 1.655 0.741 1.655 1.655s-0.741 1.655-1.655 1.655h-28.132c-0.914 0-1.655-0.741-1.655-1.655s0.741-1.655 1.655-1.655z"></path>
<path d="M1.934 1.934h28.132c0.914 0 1.655 0.741 1.655 1.655s-0.741 1.655-1.655 1.655h-28.132c-0.914 0-1.655-0.741-1.655-1.655s0.741-1.655 1.655-1.655z"></path>
</symbol>
<symbol id="icon-e" viewBox="0 0 23 32">
<path d="M19.478 0c1.793 0 3.246 1.433 3.247 3.199v14.394c0.002 1.768-1.452 3.202-3.247 3.202h-12.378c0.111 0.251 0.237 0.507 0.393 0.765 1.129 1.867 3.337 4.040 10.389 4.040 4.233 0.094 4.233 6.305 0 6.399-8.622 0-13.715-3.435-15.973-7.167-1.779-2.942-1.915-5.848-1.893-6.98-0.029-4.859-0.013-9.775-0.013-14.654 0-1.767 1.454-3.199 3.247-3.199l16.227 0zM16.228 6.399h-9.73v7.995h9.73v-7.995z"></path>
</symbol>
<symbol id="icon-corolful-dots" viewBox="0 0 33 32">
<path fill="#ff5c00" style="fill: var(--color1, #ff5c00); stroke: var(--color1, #ff5c00)" stroke="#ff5c00" stroke-linejoin="miter" stroke-linecap="butt" stroke-miterlimit="4" stroke-width="0.6957" d="M5.619 2.887c0 1.318-1.069 2.387-2.387 2.387s-2.387-1.069-2.387-2.387c0-1.318 1.069-2.387 2.387-2.387s2.387 1.069 2.387 2.387z"></path>
<path fill="#ff5c00" style="fill: var(--color1, #ff5c00); stroke: var(--color1, #ff5c00)" stroke="#ff5c00" stroke-linejoin="miter" stroke-linecap="butt" stroke-miterlimit="4" stroke-width="0.6957" d="M14.36 2.887c0 1.318-1.069 2.387-2.387 2.387s-2.387-1.069-2.387-2.387c0-1.318 1.069-2.387 2.387-2.387s2.387 1.069 2.387 2.387z"></path>
<path fill="#ff5c00" style="fill: var(--color1, #ff5c00); stroke: var(--color1, #ff5c00)" stroke="#ff5c00" stroke-linejoin="miter" stroke-linecap="butt" stroke-miterlimit="4" stroke-width="0.6957" d="M23.102 2.887c0 1.318-1.069 2.387-2.387 2.387s-2.387-1.069-2.387-2.387c0-1.318 1.069-2.387 2.387-2.387s2.387 1.069 2.387 2.387z"></path>
<path fill="#4238af" style="fill: var(--color2, #4238af); stroke: var(--color2, #4238af)" stroke="#4238af" stroke-linejoin="miter" stroke-linecap="butt" stroke-miterlimit="4" stroke-width="0.6957" d="M31.844 2.887c0 1.318-1.069 2.387-2.387 2.387s-2.387-1.069-2.387-2.387c0-1.318 1.069-2.387 2.387-2.387s2.387 1.069 2.387 2.387z"></path>
<path fill="#ff5c00" style="fill: var(--color1, #ff5c00); stroke: var(--color1, #ff5c00)" stroke="#ff5c00" stroke-linejoin="miter" stroke-linecap="butt" stroke-miterlimit="4" stroke-width="0.6957" d="M31.844 11.629c0 1.318-1.069 2.387-2.387 2.387s-2.387-1.069-2.387-2.387c0-1.318 1.069-2.387 2.387-2.387s2.387 1.069 2.387 2.387z"></path>
<path fill="#ff5c00" style="fill: var(--color1, #ff5c00); stroke: var(--color1, #ff5c00)" stroke="#ff5c00" stroke-linejoin="miter" stroke-linecap="butt" stroke-miterlimit="4" stroke-width="0.6957" d="M31.844 20.371c0 1.318-1.069 2.387-2.387 2.387s-2.387-1.069-2.387-2.387c0-1.318 1.069-2.387 2.387-2.387s2.387 1.069 2.387 2.387z"></path>
<path fill="#ff5c00" style="fill: var(--color1, #ff5c00); stroke: var(--color1, #ff5c00)" stroke="#ff5c00" stroke-linejoin="miter" stroke-linecap="butt" stroke-miterlimit="4" stroke-width="0.6957" d="M31.844 29.113c0 1.318-1.069 2.387-2.387 2.387s-2.387-1.069-2.387-2.387c0-1.318 1.069-2.387 2.387-2.387s2.387 1.069 2.387 2.387z"></path>
<path fill="#ff5c00" style="fill: var(--color1, #ff5c00); stroke: var(--color1, #ff5c00)" stroke="#ff5c00" stroke-linejoin="miter" stroke-linecap="butt" stroke-miterlimit="4" stroke-width="0.6957" d="M23.102 29.113c0 1.318-1.069 2.387-2.387 2.387s-2.387-1.069-2.387-2.387c0-1.318 1.069-2.387 2.387-2.387s2.387 1.069 2.387 2.387z"></path>
<path fill="#ff5c00" style="fill: var(--color1, #ff5c00); stroke: var(--color1, #ff5c00)" stroke="#ff5c00" stroke-linejoin="miter" stroke-linecap="butt" stroke-miterlimit="4" stroke-width="0.6957" d="M14.36 29.113c0 1.318-1.069 2.387-2.387 2.387s-2.387-1.069-2.387-2.387c0-1.318 1.069-2.387 2.387-2.387s2.387 1.069 2.387 2.387z"></path>
<path fill="#4238af" style="fill: var(--color2, #4238af); stroke: var(--color2, #4238af)" stroke="#4238af" stroke-linejoin="miter" stroke-linecap="butt" stroke-miterlimit="4" stroke-width="0.6957" d="M5.619 29.113c0 1.318-1.069 2.387-2.387 2.387s-2.387-1.069-2.387-2.387c0-1.318 1.069-2.387 2.387-2.387s2.387 1.069 2.387 2.387z"></path>
<path fill="#ff5c00" style="fill: var(--color1, #ff5c00); stroke: var(--color1, #ff5c00)" stroke="#ff5c00" stroke-linejoin="miter" stroke-linecap="butt" stroke-miterlimit="4" stroke-width="0.6957" d="M5.619 20.371c0 1.318-1.069 2.387-2.387 2.387s-2.387-1.069-2.387-2.387c0-1.318 1.069-2.387 2.387-2.387s2.387 1.069 2.387 2.387z"></path>
<path fill="#ff5c00" style="fill: var(--color1, #ff5c00); stroke: var(--color1, #ff5c00)" stroke="#ff5c00" stroke-linejoin="miter" stroke-linecap="butt" stroke-miterlimit="4" stroke-width="0.6957" d="M5.619 11.629c0 1.318-1.069 2.387-2.387 2.387s-2.387-1.069-2.387-2.387c0-1.318 1.069-2.387 2.387-2.387s2.387 1.069 2.387 2.387z"></path>
<path fill="#4238af" style="fill: var(--color2, #4238af); stroke: var(--color2, #4238af)" stroke="#4238af" stroke-linejoin="miter" stroke-linecap="butt" stroke-miterlimit="4" stroke-width="0.6957" d="M13.588 11.867c0 0.951-0.771 1.722-1.722 1.722s-1.722-0.771-1.722-1.722c0-0.951 0.771-1.722 1.722-1.722s1.722 0.771 1.722 1.722z"></path>
<path fill="#4238af" style="fill: var(--color2, #4238af); stroke: var(--color2, #4238af)" stroke="#4238af" stroke-linejoin="miter" stroke-linecap="butt" stroke-miterlimit="4" stroke-width="0.6957" d="M22.544 11.867c0 0.951-0.771 1.722-1.722 1.722s-1.722-0.771-1.722-1.722c0-0.951 0.771-1.722 1.722-1.722s1.722 0.771 1.722 1.722z"></path>
<path fill="#4238af" style="fill: var(--color2, #4238af); stroke: var(--color2, #4238af)" stroke="#4238af" stroke-linejoin="miter" stroke-linecap="butt" stroke-miterlimit="4" stroke-width="0.6957" d="M22.544 20.133c0 0.951-0.771 1.722-1.722 1.722s-1.722-0.771-1.722-1.722c0-0.951 0.771-1.722 1.722-1.722s1.722 0.771 1.722 1.722z"></path>
<path fill="#4238af" style="fill: var(--color2, #4238af); stroke: var(--color2, #4238af)" stroke="#4238af" stroke-linejoin="miter" stroke-linecap="butt" stroke-miterlimit="4" stroke-width="0.6957" d="M13.588 20.133c0 0.951-0.771 1.722-1.722 1.722s-1.722-0.771-1.722-1.722c0-0.951 0.771-1.722 1.722-1.722s1.722 0.771 1.722 1.722z"></path>
</symbol>
<symbol id="icon-dots" viewBox="0 0 147 32">
<path d="M14.718 1.282c-3.904 0-7.648 1.55-10.408 4.311-2.761 2.76-4.311 6.504-4.311 10.408s1.55 7.648 4.311 10.408c2.76 2.761 6.504 4.311 10.408 4.311s7.648-1.55 10.408-4.311c2.761-2.76 4.311-6.504 4.311-10.408s-1.55-7.648-4.311-10.408c-2.76-2.761-6.504-4.311-10.408-4.311zM73.594 1.282c-3.904 0-7.648 1.55-10.408 4.311s-4.311 6.504-4.311 10.408 1.55 7.648 4.311 10.408c2.76 2.761 6.504 4.311 10.408 4.311s7.648-1.55 10.408-4.311c2.761-2.76 4.311-6.504 4.311-10.408 0-3.921-1.564-7.68-4.346-10.443s-6.551-4.302-10.471-4.276h0.099zM132.47 1.282c-3.904 0-7.648 1.55-10.408 4.311-2.761 2.76-4.311 6.504-4.311 10.408s1.55 7.648 4.311 10.408c2.76 2.761 6.504 4.311 10.408 4.311s7.648-1.55 10.408-4.311c2.761-2.76 4.311-6.504 4.311-10.408 0-3.943-1.58-7.72-4.389-10.487-2.808-2.767-6.609-4.292-10.55-4.232h0.221z"></path>
</symbol>
<symbol id="icon-glass" viewBox="0 0 32 32">
<path d="M13.589 0c-4.351 0.002-8.439 2.087-10.995 5.609s-3.273 8.056-1.927 12.195c1.346 4.139 4.591 7.384 8.729 8.729s8.67 0.626 12.191-1.932l6.771 6.773c0.539 0.539 1.325 0.75 2.061 0.552s1.311-0.773 1.509-1.509c0.197-0.737-0.013-1.523-0.552-2.062l-6.771-6.773c1.978-2.719 2.877-6.075 2.525-9.419s-1.932-6.438-4.433-8.685c-2.501-2.247-5.746-3.486-9.107-3.479l-0.001 0zM13.589 22.933c-2.475 0-4.848-0.983-6.597-2.734s-2.733-4.124-2.733-6.599c0-2.475 0.983-4.849 2.733-6.599s4.123-2.733 6.597-2.733c2.475 0 4.848 0.983 6.597 2.733s2.733 4.124 2.733 6.599c-0.003 2.474-0.986 4.847-2.736 6.596s-4.121 2.734-6.594 2.737z"></path>
</symbol>
<symbol id="icon-heart" viewBox="0 0 32 32">
<path d="M2.316 3.805c-3.090 3.343-3.087 8.723 0 12.069l13.675 14.829c4.564-4.937 9.127-9.875 13.691-14.812 3.090-3.343 3.090-8.726 0-12.069s-8.066-3.343-11.155 0l-2.52 2.726-2.535-2.743c-3.090-3.343-8.066-3.343-11.155 0l-0.001-0z"></path>
</symbol>
<symbol id="icon-instagram" viewBox="0 0 32 32">
<path d="M9.337 0c-5.14 0-9.323 4.189-9.323 9.335v13.333c0 5.146 4.185 9.332 9.327 9.332h13.32c5.141 0 9.324-4.189 9.324-9.335v-13.334c0-5.145-4.185-9.331-9.327-9.331h-13.322zM25.591 5.12c0.706 0 1.279 0.573 1.279 1.28s-0.573 1.28-1.279 1.28c-0.706 0-1.279-0.573-1.279-1.28s0.573-1.28 1.279-1.28zM16 7.68c4.585 0 8.312 3.731 8.312 8.32s-3.728 8.32-8.312 8.32c-4.585 0-8.312-3.732-8.312-8.32s3.728-8.32 8.312-8.32zM16 10.24c-3.179 0-5.755 2.579-5.755 5.76s2.576 5.76 5.755 5.76c3.179 0 5.755-2.579 5.755-5.76s-2.576-5.76-5.755-5.76z"></path>
</symbol>
<symbol id="icon-logo-icon" viewBox="0 0 32 32">
<path fill="#544cac" style="fill: var(--color3, #544cac)" d="M5.839 11.029l-5.839-1.42 5.718-4.587 0.12 6.008z"></path>
<path fill="#ff5c00" style="fill: var(--color1, #ff5c00)" d="M13.516 7.836l-6.388 5.123-0.199-9.987 6.586 4.865z"></path>
<path fill="#544cac" style="fill: var(--color3, #544cac)" d="M24.486 21.018l7.514 1.821-7.353 5.908-0.161-7.73z"></path>
<path fill="#544cac" style="fill: var(--color3, #544cac)" d="M5.137 16.433l18.082-14.609 0.666 28.352-18.748-13.743z"></path>
</symbol>
<symbol id="icon-marker" viewBox="0 0 32 32">
<path d="M16 0.25c-6.028 0-10.909 5.078-10.909 11.313 0 2.248 0.656 3.956 1.73 5.694l8.838 14.305c0.074 0.117 0.203 0.187 0.341 0.187s0.267-0.071 0.341-0.187l8.838-14.305c1.074-1.738 1.73-3.447 1.73-5.694 0-6.235-4.881-11.313-10.909-11.313h0zM16 1.058c5.575 0 10.101 4.69 10.101 10.505 0 2.095-0.576 3.615-1.604 5.278l-8.497 13.75-8.497-13.75c-1.028-1.663-1.604-3.182-1.604-5.278 0-5.815 4.526-10.505 10.101-10.505h-0zM16 5.906c-2.896 0-5.253 2.356-5.253 5.253s2.356 5.253 5.253 5.253c2.896 0 5.253-2.356 5.253-5.253s-2.356-5.253-5.253-5.253zM16 6.714c2.459 0 4.445 1.985 4.445 4.445s-1.985 4.445-4.445 4.445c-2.459 0-4.445-1.985-4.445-4.445s1.985-4.445 4.445-4.445z"></path>
</symbol>
<symbol id="icon-money-bag" viewBox="0 0 32 32">
<path d="M11.993 32h8.017c5.234 0 9.494-4.261 9.494-9.498 0-2.213-1.062-4.791-2.839-6.897l-5.762-6.835 3.605-6.789c0.104-0.194 0.086-0.431-0.046-0.608-0.131-0.176-0.351-0.259-0.569-0.221l-5.258 1.026-2.249-2.032c-0.217-0.197-0.549-0.197-0.767 0l-2.248 2.032-5.26-1.028c-0.216-0.038-0.436 0.045-0.569 0.221-0.131 0.177-0.148 0.414-0.046 0.608l3.607 6.789-5.765 6.835c-1.778 2.107-2.84 4.687-2.84 6.898 0.001 5.237 4.261 9.498 9.496 9.498h-0zM9.067 2.503l4.364 0.853c0.178 0.033 0.359-0.016 0.493-0.137l2.077-1.878 2.078 1.879c0.134 0.121 0.319 0.17 0.493 0.137l4.362-0.853-2.921 5.502c-0.009-0.002-0.017-0.007-0.028-0.007h-7.966c-0.010 0-0.018 0.006-0.029 0.007l-2.922-5.503zM6.212 16.342l6.072-7.2h7.435l6.071 7.2c1.585 1.879 2.57 4.239 2.57 6.162 0 4.606-3.746 8.354-8.351 8.354h-8.017c-4.605 0-8.352-3.748-8.352-8.355 0-1.921 0.985-4.282 2.572-6.161l-0 0z"></path>
<path d="M14.974 20.796l1.661 0.602c0.952 0.347 1.443 1.402 1.097 2.352-0.263 0.724-0.957 1.21-1.728 1.21h-0.003c-0.513 0-0.995-0.2-1.353-0.559-0.178-0.181-0.315-0.383-0.408-0.6-0.124-0.29-0.46-0.423-0.75-0.3-0.29 0.124-0.425 0.46-0.301 0.751 0.148 0.347 0.366 0.667 0.646 0.954 0.44 0.441 0.992 0.728 1.591 0.841v1.37c0 0.315 0.256 0.571 0.571 0.571s0.571-0.256 0.571-0.571v-1.375c1.013-0.197 1.877-0.909 2.238-1.902 0.272-0.746 0.238-1.555-0.098-2.277-0.336-0.72-0.933-1.267-1.682-1.541l-1.659-0.601c-0.952-0.347-1.443-1.402-1.097-2.352 0.263-0.724 0.957-1.21 1.728-1.21h0.003c0.511 0 0.993 0.2 1.357 0.561 0.171 0.172 0.309 0.375 0.407 0.6 0.126 0.289 0.459 0.418 0.752 0.297 0.289-0.126 0.423-0.463 0.296-0.752-0.155-0.358-0.372-0.678-0.647-0.953-0.443-0.442-0.997-0.729-1.595-0.84v-1.37c0-0.315-0.256-0.571-0.571-0.571s-0.571 0.256-0.571 0.571v1.376c-1.010 0.199-1.87 0.91-2.231 1.901-0.272 0.746-0.238 1.555 0.098 2.277 0.336 0.72 0.933 1.267 1.68 1.539l-0 0z"></path>
</symbol>
<symbol id="icon-star-filled" viewBox="0 0 32 32">
<path d="M31.945 12.102c-0.135-0.434-0.492-0.751-0.923-0.816l-9.672-1.475-4.325-9.197c-0.385-0.819-1.665-0.819-2.050 0l-4.325 9.197-9.672 1.475c-0.43 0.066-0.788 0.382-0.922 0.816s-0.022 0.911 0.289 1.23l6.998 7.158-1.652 10.108c-0.073 0.45 0.103 0.905 0.455 1.173 0.353 0.268 0.819 0.304 1.204 0.091l8.651-4.773 8.651 4.773c0.384 0.211 0.85 0.177 1.203-0.091 0.352-0.268 0.528-0.723 0.455-1.173l-1.652-10.108 6.998-7.158c0.312-0.319 0.424-0.795 0.289-1.23l0.001-0z"></path>
</symbol>
<symbol id="icon-tick" viewBox="0 0 32 32">
<path d="M16 0c-8.81 0-16 7.19-16 16s7.19 16 16 16c8.81 0 16-7.19 16-16s-7.19-16-16-16zM23.48 12.675l-8.603 8.187c-0.208 0.208-0.457 0.291-0.706 0.291-0.291 0-0.54-0.083-0.748-0.291l-4.904-4.946c-0.416-0.374-0.416-1.039 0-1.455 0.374-0.416 1.039-0.416 1.455 0l4.197 4.239 7.896-7.522c0.416-0.374 1.039-0.374 1.455 0.041 0.374 0.416 0.374 1.039-0.042 1.455z"></path>
</symbol>
<symbol id="icon-twitter" viewBox="0 0 32 32">
<path d="M32 5.811c-1.176 0.54-2.441 0.899-3.775 1.069 1.357-0.834 2.4-2.164 2.89-3.735-1.269 0.771-2.675 1.336-4.171 1.635-1.195-1.311-2.899-2.125-4.787-2.125-3.627 0-6.566 3.017-6.566 6.737 0 0.526 0.059 1.039 0.171 1.537-5.456-0.284-10.294-2.969-13.531-7.045-0.569 0.996-0.889 2.162-0.889 3.393 0 2.339 1.157 4.398 2.92 5.611-1.076-0.034-2.090-0.344-2.977-0.841 0 0.020 0 0.050 0 0.079 0 3.268 2.264 5.99 5.264 6.61-0.549 0.155-1.128 0.242-1.725 0.242-0.424 0-0.837-0.050-1.237-0.124 0.835 2.671 3.26 4.623 6.131 4.681-2.247 1.804-5.077 2.884-8.154 2.884-0.532 0-1.051-0.031-1.565-0.096 2.907 1.906 6.359 3.024 10.065 3.024 12.075 0 18.681-10.268 18.681-19.175 0-0.292-0.009-0.583-0.022-0.87 1.289-0.942 2.4-2.132 3.277-3.49z"></path>
</symbol>
<symbol id="icon-watch" viewBox="0 0 32 32">
<path d="M32 16c0 8.837-7.163 16-16 16s-16-7.163-16-16c0-8.837 7.163-16 16-16s16 7.163 16 16zM2.58 16c0 7.412 6.008 13.42 13.42 13.42s13.42-6.009 13.42-13.42c0-7.412-6.009-13.42-13.42-13.42s-13.42 6.008-13.42 13.42z"></path>
<path d="M11.998 8.559l0.34 16.352 12.627-8.442-12.967-7.91z"></path>
</symbol>
<symbol id="icon-youtube" viewBox="0 0 32 32">
<path d="M31.107 8.809c-0.296-1.506-1.705-2.603-3.341-2.945-2.448-0.479-6.978-0.821-11.879-0.821-4.898 0-9.501 0.342-11.951 0.821-1.633 0.342-3.045 1.37-3.341 2.945-0.299 1.712-0.595 4.109-0.595 7.191s0.296 5.479 0.667 7.191c0.299 1.506 1.708 2.603 3.341 2.945 2.598 0.479 7.053 0.821 11.954 0.821s9.356-0.342 11.954-0.821c1.633-0.342 3.042-1.37 3.341-2.945 0.296-1.712 0.667-4.179 0.743-7.191-0.151-3.082-0.522-5.479-0.893-7.191zM11.879 20.794v-9.588l9.057 4.794-9.057 4.794z"></path>
</symbol>
<symbol id="icon-arrow" viewBox="0 0 32 32">
<path d="M0.458 9.725l14.151 15.103c0.747 0.778 2.062 0.778 2.773 0l14.044-14.997c0.711-0.778 0.818-2.016 0-2.759-0.782-0.707-1.956-0.601-2.667 0.177l-12.231 13.052c-0.284 0.283-0.711 0.283-0.996 0l-12.266-13.087c-0.64-0.707-1.778-0.849-2.56-0.248-0.818 0.637-0.96 2.016-0.249 2.759l-0 0z"></path>
</symbol>
<symbol id="icon-arrow-slider" viewBox="0 0 32 32">
<path d="M27.97 15.737l-10.589-10.589c-0.666-0.666-0.666-1.732 0-2.331s1.732-0.666 2.331 0l11.788 11.788c0.666 0.666 0.666 1.731 0 2.331l-12.321 12.254c-0.333 0.333-0.733 0.466-1.199 0.466s-0.866-0.133-1.199-0.466c-0.666-0.666-0.666-1.732 0-2.331l11.188-11.123z"></path>
<path d="M1.665 14.338h17.981c0.932 0 1.665 0.733 1.665 1.665s-0.733 1.665-1.665 1.665h-17.981c-0.932 0-1.665-0.733-1.665-1.665s0.733-1.665 1.665-1.665z"></path>
</symbol>
<symbol id="icon-arrow-video" viewBox="0 0 32 32">
<path d="M16 0c-8.823 0-16 7.178-16 16s7.177 16 16 16 16-7.177 16-16c0-8.823-7.177-16-16-16v0zM12.769 23.061v-14.121l9.97 7.061-9.97 7.061z"></path>
</symbol>
<symbol id="icon-facebook" viewBox="0 0 32 32">
<path d="M16 0c-8.828 0-15.985 7.201-15.985 16.083 0 8.063 5.904 14.721 13.596 15.884v-11.622h-3.955v-4.227h3.955v-2.813c0-4.657 2.255-6.701 6.103-6.701 1.842 0 2.818 0.138 3.278 0.2v3.69h-2.624c-1.633 0-2.204 1.559-2.204 3.314v2.31h4.786l-0.649 4.227h-4.138v11.655c7.802-1.064 13.822-7.775 13.822-15.917 0-8.881-7.157-16.083-15.986-16.083z"></path>
</symbol>
</defs>
</svg>
